<?xml version="1.0" standalone="no"?>
<!DOCTYPE svg PUBLIC "-//W3C//DTD SVG 20010904//EN"
 "http://www.w3.org/TR/2001/REC-SVG-20010904/DTD/svg10.dtd">
<svg version="1.0" xmlns="http://www.w3.org/2000/svg"
 width="1000.000000pt" height="1000.000000pt" viewBox="0 0 1000.000000 1000.000000"
 preserveAspectRatio="xMidYMid meet">
<metadata>
Created by potrace 1.11, written by Peter Selinger 2001-2013
</metadata>
<g transform="translate(0.000000,1000.000000) scale(0.100000,-0.100000)"
fill="#000000" stroke="none">
<path d="M650 4995 l0 -4485 4350 0 4350 0 0 4485 0 4485 -4350 0 -4350 0 0
-4485z m8100 0 l0 -3885 -3750 0 -3750 0 0 3885 0 3885 3750 0 3750 0 0 -3885z"/>
<path d="M2600 6800 l0 -1122 538 5 c568 5 605 7 774 58 236 70 399 225 449
429 22 88 17 271 -10 350 -53 153 -159 256 -331 320 l-61 23 48 26 c100 55
185 134 226 210 77 141 75 363 -5 513 -70 131 -201 221 -403 275 l-100 27
-562 4 -563 3 0 -1121z m939 649 c102 -22 164 -95 164 -194 0 -64 -25 -116
-72 -156 -56 -46 -126 -62 -276 -63 l-130 -1 -3 213 -2 212 134 0 c74 0 158
-5 185 -11z m-6 -834 c89 -19 144 -50 182 -103 28 -41 30 -50 30 -131 0 -81
-2 -90 -28 -125 -67 -87 -169 -118 -370 -114 l-122 3 -3 230 c-1 126 0 235 2
242 7 18 221 17 309 -2z"/>
<path d="M5840 6745 l0 -1135 790 0 790 0 0 265 0 265 -460 0 -460 0 0 180 0
180 381 0 381 0 -6 28 c-3 15 -22 132 -42 260 l-38 232 -338 0 -338 0 0 160 0
160 445 0 445 0 0 270 0 270 -775 0 -775 0 0 -1135z"/>
<path d="M3099 4273 c-32 -83 -819 -2215 -819 -2219 0 -2 146 -4 324 -4 l324
0 61 190 62 190 393 0 394 0 12 -32 c6 -18 36 -105 67 -193 30 -88 58 -163 62
-167 6 -7 660 87 668 96 2 2 -175 490 -394 1085 l-398 1081 -373 0 -372 0 -11
-27z m461 -989 c60 -184 110 -339 110 -345 0 -10 -442 -13 -453 -3 -3 3 46
157 109 342 63 185 114 337 114 339 0 24 27 -50 120 -333z"/>
<path d="M6560 4279 c-256 -28 -481 -117 -653 -257 -278 -226 -422 -609 -387
-1033 26 -314 124 -546 309 -730 155 -154 322 -239 581 -295 132 -29 474 -27
628 4 188 38 392 114 520 195 l42 27 0 560 0 560 -515 0 c-283 0 -515 -3 -515
-7 0 -5 16 -113 37 -240 l37 -233 188 0 188 0 0 -160 0 -159 -72 -23 c-106
-33 -294 -33 -391 0 -189 66 -306 213 -353 442 -20 102 -15 323 10 414 55 198
176 326 361 382 45 14 90 18 185 18 184 -2 330 -39 520 -134 l96 -47 43 284
c24 156 42 285 40 287 -13 12 -199 78 -268 96 -183 46 -461 68 -631 49z"/>
</g>
</svg>
