<?xml version="1.0" standalone="no"?>
<!DOCTYPE svg PUBLIC "-//W3C//DTD SVG 20010904//EN"
 "http://www.w3.org/TR/2001/REC-SVG-20010904/DTD/svg10.dtd">
<svg version="1.0" xmlns="http://www.w3.org/2000/svg"
 width="1000.000000pt" height="1000.000000pt" viewBox="0 0 1000.000000 1000.000000"
 preserveAspectRatio="xMidYMid meet">
<metadata>
Created by potrace 1.11, written by Peter Selinger 2001-2013
</metadata>
<g transform="translate(0.000000,1000.000000) scale(0.100000,-0.100000)"
fill="#000000" stroke="none">
<path d="M800 5000 l0 -4200 4200 0 4200 0 0 4200 0 4200 -4200 0 -4200 0 0
-4200z m8100 0 l0 -3900 -3900 0 -3900 0 0 3900 0 3900 3900 0 3900 0 0 -3900z"/>
<path d="M5810 6770 l0 -1110 595 0 595 0 0 120 0 120 -455 0 -455 0 0 395 0
395 390 0 390 0 0 120 0 120 -390 0 -390 0 0 355 0 355 450 0 450 0 0 120 0
120 -590 0 -590 0 0 -1110z"/>
<path d="M2840 6760 l0 -1100 363 0 c316 0 374 3 454 19 221 46 371 189 430
411 13 47 17 103 17 205 0 124 -3 149 -26 217 -45 135 -134 244 -233 284 -25
11 -45 22 -45 26 0 4 13 14 28 22 45 23 127 102 161 154 58 90 74 153 74 287
1 250 -80 412 -252 503 -116 62 -196 72 -608 72 l-363 0 0 -1100z m740 845
c113 -30 179 -110 201 -245 22 -136 -13 -264 -95 -346 -81 -80 -118 -89 -366
-89 l-205 0 -3 335 c-1 184 0 341 3 347 7 20 392 18 465 -2z m65 -943 c93 -43
146 -114 170 -228 41 -194 -7 -379 -120 -466 -78 -59 -136 -70 -375 -66 l-205
3 -3 380 c-1 209 0 386 3 393 4 11 52 13 242 10 224 -3 241 -4 288 -26z"/>
<path d="M6310 4295 c-267 -59 -433 -227 -505 -509 -41 -161 -47 -264 -42
-672 4 -339 7 -388 25 -466 77 -324 256 -521 537 -594 104 -27 350 -25 460 5
140 37 239 92 333 187 l82 83 0 421 0 420 -345 0 -345 0 0 -120 0 -120 205 0
205 0 0 -254 0 -254 -40 -35 c-135 -123 -392 -153 -561 -66 -137 69 -232 231
-265 449 -20 133 -20 707 1 840 37 244 116 369 275 432 80 32 260 32 341 0
116 -46 200 -159 229 -307 6 -33 14 -70 16 -82 4 -23 7 -23 144 -23 l140 0 -6
58 c-33 312 -195 523 -460 597 -83 24 -336 30 -424 10z"/>
<path d="M3310 4043 c-33 -103 -192 -597 -353 -1098 l-293 -910 139 -3 c77 -1
142 0 145 2 2 3 41 128 86 278 45 150 85 279 89 286 6 9 91 12 366 12 275 0
361 -3 368 -12 5 -7 47 -138 93 -290 l84 -278 143 0 c79 0 143 1 143 3 0 1
-159 495 -353 1097 l-354 1095 -121 3 -121 3 -61 -188z m331 -708 l146 -485
-293 0 c-162 0 -294 3 -294 8 0 16 285 962 290 962 3 0 71 -218 151 -485z"/>
</g>
</svg>
